<svg xmlns="http://www.w3.org/2000/svg" viewBox="0 0 55.49 47.21"><defs><style>.cls-1{fill:#424242;}.cls-2{fill:#fff;}</style></defs><title>Asset 5</title><g id="Layer_2" data-name="Layer 2"><g id="Layer_1-2" data-name="Layer 1"><path class="cls-1" d="M43.36,47.15a5.1,5.1,0,0,1-4.86-3.64l-.22-.75H27.67l-.22.75a5.06,5.06,0,0,1-9.72,0l-.21-.75H15a5.62,5.62,0,0,1-.38-11.23l1.3-.09L7,1.33H.66A.67.67,0,0,1,.66,0H7.49a.65.65,0,0,1,.63.47l2.52,8.46H54.83a.65.65,0,0,1,.63.85L48.73,32.37a.65.65,0,0,1-.63.47H15a4.3,4.3,0,0,0,0,8.59h2.48l.21-.75a5.06,5.06,0,0,1,9.72,0l.22.75H38.28l.22-.75a5.06,5.06,0,0,1,9.72,0l.22.75h3a.67.67,0,0,1,0,1.33h-3l-.22.75A5.1,5.1,0,0,1,43.36,47.15Zm0-8.79a3.74,3.74,0,1,0,3.73,3.73A3.73,3.73,0,0,0,43.36,38.36Zm-20.77,0a3.74,3.74,0,1,0,3.74,3.73A3.73,3.73,0,0,0,22.59,38.36ZM39,31.52H47.6l3-10H39Zm-12.62,0H37.69v-10H26.4Zm-9,0h7.7v-10H14.4ZM39,20.22H51l3-10H39Zm-12.62,0H37.69v-10H26.4Zm-12.4,0H25.07v-10H11Z"/><circle class="cls-1" cx="22.53" cy="42.09" r="5.12"/><circle class="cls-2" cx="22.53" cy="42.09" r="1.48"/><circle class="cls-1" cx="43.35" cy="42.09" r="5.12"/><circle class="cls-2" cx="43.35" cy="42.09" r="1.48"/></g></g></svg>