<svg xmlns="http://www.w3.org/2000/svg" viewBox="0 0 53.21 49.13"><defs><style>.cls-1{fill:#424242;}</style></defs><title>Asset 3</title><g id="Layer_2" data-name="Layer 2"><g id="Layer_1-2" data-name="Layer 1"><rect class="cls-1" x="11.63" y="23.79" width="29.95" height="8.31"/><path class="cls-1" d="M40.23,49.13H13a2,2,0,0,1-2-2V18.81L9.44,20.36a2.05,2.05,0,0,1-2.84,0l-6-6a2,2,0,0,1,0-2.83L11.42.67A1.93,1.93,0,0,1,12,.27,2,2,0,0,1,13,0h9.4a2,2,0,0,1,2,2,2.26,2.26,0,1,0,4.51,0,2,2,0,0,1,2-2h9.37a2,2,0,0,1,1,.27,2,2,0,0,1,.59.4L52.63,11.51a2,2,0,0,1,0,2.83l-6,6a2.05,2.05,0,0,1-2.83,0l-1.55-1.55V47.13A2,2,0,0,1,40.23,49.13ZM12.28,15.68V47.13a.7.7,0,0,0,.7.7H40.23a.7.7,0,0,0,.7-.7V15.68l3.77,3.76a.71.71,0,0,0,1,0l6-6a.68.68,0,0,0,.2-.49.7.7,0,0,0-.2-.5L40.87,1.59a.6.6,0,0,0-.21-.14l-.1-.05a.68.68,0,0,0-.35-.1H30.86a.71.71,0,0,0-.7.7,3.56,3.56,0,1,1-7.11,0,.7.7,0,0,0-.7-.7H13a.66.66,0,0,0-.32.1l-.09.05a.64.64,0,0,0-.22.14L1.5,12.43a.71.71,0,0,0,0,1l6,6a.72.72,0,0,0,1,0Z"/></g></g></svg>