<svg xmlns="http://www.w3.org/2000/svg" viewBox="0 0 46.7 46.72"><defs><style>.cls-1{fill:#424242;}.cls-2{fill:#fff;}</style></defs><title>Asset 4</title><g id="Layer_2" data-name="Layer 2"><g id="Layer_1-2" data-name="Layer 1"><path class="cls-1" d="M35.59,46.7a3.48,3.48,0,0,1-3.47-3.48,3.08,3.08,0,0,1,0-.53l.08-.53-8.89-4.79-8.89,4.78.08.54a3.08,3.08,0,0,1,0,.53,3.49,3.49,0,1,1-1.14-2.57l.4.36L22,36.63l-11-5.94H3.48A3.48,3.48,0,0,1,0,27.21V15a.65.65,0,1,1,1.3,0v3.11H4.42a6.31,6.31,0,0,1,6.17,5l.13.61h6.33V1.3H9.87V5.65h2.18a.65.65,0,0,1,.65.65v7.54a.65.65,0,0,1-.65.65H6.4a.65.65,0,0,1-.65-.65V6.3a.65.65,0,0,1,.65-.65H8.57V1.3H6.4A.65.65,0,1,1,6.4,0H29a.65.65,0,1,1,0,1.3H18.35V23.73h8.21v-5a.65.65,0,0,1,.65-.65H45.4V15a.65.65,0,0,1,1.3,0V27.21a3.48,3.48,0,0,1-3.48,3.48H35.76l-11,5.94L32.86,41l.4-.36a3.48,3.48,0,1,1,2.33,6.05Zm0-5.65a2.18,2.18,0,1,0,2.18,2.17A2.17,2.17,0,0,0,35.59,41.05Zm-24.48,0a2.18,2.18,0,1,0,2.17,2.17A2.18,2.18,0,0,0,11.11,41.05Zm2.05-10.36,10.19,5.2,10.48-5.2ZM1.3,27.21a2.18,2.18,0,0,0,2.18,2.17H43.22a2.18,2.18,0,0,0,2.18-2.17V25H1.3Zm39.12-3.48h5V19.39h-5Zm-6.28,0h5V19.39h-5Zm-6.28,0h5V19.39h-5Zm-26.56,0H9.49l-.36-1a5,5,0,0,0-4.71-3.33H1.3ZM7.05,13.19H11.4V7H7.05Z"/><circle class="cls-1" cx="35.55" cy="43.22" r="3.5"/><circle class="cls-2" cx="35.55" cy="43.22" r="1.22"/><circle class="cls-1" cx="11.11" cy="43.22" r="3.5"/><circle class="cls-2" cx="11.11" cy="43.22" r="1.22"/></g></g></svg>