<svg xmlns="http://www.w3.org/2000/svg" viewBox="0 0 90.77 59.25"><defs><style>.cls-1{fill:#424242;}.cls-2{fill:#fff;}</style></defs><title>Asset 2</title><g id="Layer_2" data-name="Layer 2"><g id="Layer_1-2" data-name="Layer 1"><path class="cls-1" d="M11.33,0a.9.9,0,0,0-.9.9v11H7V.9A.9.9,0,0,0,6,0H6a.9.9,0,0,0-.9.9v11H1.8V.9A.9.9,0,0,0,0,.9V17.57A6.12,6.12,0,0,0,3.72,23.2V56.85a2.4,2.4,0,0,0,2.39,2.4h0a2.4,2.4,0,0,0,2.39-2.4V23.2a6.12,6.12,0,0,0,3.72-5.63V.9A.9.9,0,0,0,11.33,0Z"/><path class="cls-1" d="M82.52,31.43h3.27V56.76a2.49,2.49,0,0,0,5,0V.93A.93.93,0,0,0,89.84,0h0a8.47,8.47,0,0,0-8.29,8.48l.06,22a.93.93,0,0,0,.93.93ZM88.9,2V29.57H83.45l0-21.09A6.62,6.62,0,0,1,88.9,2Z"/><path class="cls-1" d="M44.76,59.11A29.56,29.56,0,1,0,15.21,29.55,29.59,29.59,0,0,0,44.76,59.11Z"/><path class="cls-2" d="M44.76,48.63A19.09,19.09,0,1,0,31.28,43,19.08,19.08,0,0,0,44.76,48.63ZM33.05,17.84A16.56,16.56,0,1,1,28.2,29.55,16.56,16.56,0,0,1,33.05,17.84Z"/></g></g></svg>