<svg xmlns="http://www.w3.org/2000/svg" viewBox="0 0 36.6 47.83"><defs><style>.cls-1{fill:#424242;}</style></defs><title>Asset 6</title><g id="Layer_2" data-name="Layer 2"><g id="Layer_1-2" data-name="Layer 1"><path class="cls-1" d="M18.33,6.5a1.3,1.3,0,1,1,1.3-1.3A1.3,1.3,0,0,1,18.33,6.5Z"/><path class="cls-1" d="M3.33,47.83A3.33,3.33,0,0,1,0,44.5V10.82A3.34,3.34,0,0,1,3.33,7.48H8.71l.12-.13a5.19,5.19,0,0,1,2.41-1.53A3,3,0,0,0,13.3,3.76a5.2,5.2,0,0,1,10,0,3,3,0,0,0,2.06,2.06,5.19,5.19,0,0,1,2.41,1.53l.12.13h5.38a3.34,3.34,0,0,1,3.33,3.34V44.5a3.33,3.33,0,0,1-3.33,3.33Zm0-39.29a2.28,2.28,0,0,0-2.28,2.28V44.5a2.28,2.28,0,0,0,2.28,2.28H33.27a2.28,2.28,0,0,0,2.28-2.28V10.82a2.28,2.28,0,0,0-2.28-2.28H28.63l.19.54a5.22,5.22,0,0,1,.3,1.74v3.33H7.48V10.77a5.47,5.47,0,0,1,.3-1.69L8,8.54Zm15-7.49a4.18,4.18,0,0,0-4,3,4,4,0,0,1-2.77,2.78,4.15,4.15,0,0,0-3,3.95V13.1H28.07V10.82a4.17,4.17,0,0,0-3-4,4,4,0,0,1-2.78-2.78A4.18,4.18,0,0,0,18.3,1.05Z"/><path class="cls-1" d="M14.16,22.9a1.07,1.07,0,0,1,0-2.13H28.05a1.07,1.07,0,1,1,0,2.13Z"/><path class="cls-1" d="M9,23.48a1.65,1.65,0,1,1,1.65-1.64A1.65,1.65,0,0,1,9,23.48Z"/><path class="cls-1" d="M14.16,30a1.07,1.07,0,0,1,0-2.13H28.05a1.07,1.07,0,1,1,0,2.13Z"/><path class="cls-1" d="M9,30.54a1.65,1.65,0,1,1,1.65-1.65A1.65,1.65,0,0,1,9,30.54Z"/><path class="cls-1" d="M14.16,36.78a1.07,1.07,0,0,1,0-2.13H28.05a1.07,1.07,0,1,1,0,2.13Z"/><path class="cls-1" d="M9,37.37a1.65,1.65,0,1,1,1.65-1.65A1.65,1.65,0,0,1,9,37.37Z"/></g></g></svg>