<svg xmlns="http://www.w3.org/2000/svg" viewBox="0 0 46.83 46.83"><defs><style>.cls-1{fill:#424242;}</style></defs><title>Asset 1</title><g id="Layer_2" data-name="Layer 2"><g id="Layer_1-2" data-name="Layer 1"><path class="cls-1" d="M40,25.37a6.82,6.82,0,0,1-5.44-2.7,6.54,6.54,0,0,1-10.71-.17,7.3,7.3,0,0,1-11.53.1A6.83,6.83,0,0,1,0,18.54V9.27a1.47,1.47,0,0,1,2.93,0v9.27a3.9,3.9,0,0,0,7.8,0V15.12a1.47,1.47,0,0,1,2.93,0v2.93a4.39,4.39,0,0,0,8.78,0V15.12a1.47,1.47,0,0,1,2.93,0v2.93a4.17,4.17,0,0,0,3.9,4.39,4.17,4.17,0,0,0,3.9-4.39V15.12a1.47,1.47,0,0,1,2.93,0v3.42a3.9,3.9,0,0,0,7.8,0V9.27a1.47,1.47,0,0,1,2.93,0v9.27A6.84,6.84,0,0,1,40,25.37Z"/><path class="cls-1" d="M35.61,46.83a1.46,1.46,0,0,1-1.46-1.46V34.64a2.44,2.44,0,0,0-2.44-2.44H15.12a2.44,2.44,0,0,0-2.44,2.44V45.37a1.46,1.46,0,1,1-2.92,0V34.64a5.37,5.37,0,0,1,5.36-5.37H31.71a5.37,5.37,0,0,1,5.36,5.37V45.37A1.46,1.46,0,0,1,35.61,46.83Z"/><path class="cls-1" d="M45.37,10.73H1.46a1.46,1.46,0,0,1,0-2.92H45.37a1.46,1.46,0,1,1,0,2.92Z"/><path class="cls-1" d="M41.46,46.83H5.37A5.38,5.38,0,0,1,0,41.46V9.27a1.52,1.52,0,0,1,.15-.66L3.52,1.89A3.38,3.38,0,0,1,6.57,0H40.26a3.38,3.38,0,0,1,3.05,1.89l3.37,6.72a1.52,1.52,0,0,1,.15.66V41.46a5.38,5.38,0,0,1-5.37,5.37ZM2.93,9.61V41.46A2.44,2.44,0,0,0,5.37,43.9H41.46a2.44,2.44,0,0,0,2.44-2.44V9.61L40.69,3.2a.46.46,0,0,0-.43-.27H6.57a.5.5,0,0,0-.44.26h0Zm1.9-7.07h0Z"/></g></g></svg>